<svg width="320" height="320" viewBox="0 0 320 320" xmlns="http://www.w3.org/2000/svg" shape-rendering="crispEdges"><rect width="100%" height="100%" fill="#e1d7d5" /><rect width="140" height="10" x="90" y="210" fill="#9f21a0" /><rect width="140" height="10" x="90" y="220" fill="#9f21a0" /><rect width="140" height="10" x="90" y="230" fill="#9f21a0" /><rect width="140" height="10" x="90" y="240" fill="#9f21a0" /><rect width="20" height="10" x="90" y="250" fill="#9f21a0" /><rect width="110" height="10" x="120" y="250" fill="#9f21a0" /><rect width="20" height="10" x="90" y="260" fill="#9f21a0" /><rect width="110" height="10" x="120" y="260" fill="#9f21a0" /><rect width="20" height="10" x="90" y="270" fill="#9f21a0" /><rect width="110" height="10" x="120" y="270" fill="#9f21a0" /><rect width="20" height="10" x="90" y="280" fill="#9f21a0" /><rect width="110" height="10" x="120" y="280" fill="#9f21a0" /><rect width="20" height="10" x="90" y="290" fill="#9f21a0" /><rect width="110" height="10" x="120" y="290" fill="#9f21a0" /><rect width="20" height="10" x="90" y="300" fill="#9f21a0" /><rect width="110" height="10" x="120" y="300" fill="#9f21a0" /><rect width="20" height="10" x="90" y="310" fill="#9f21a0" /><rect width="110" height="10" x="120" y="310" fill="#9f21a0" /><rect width="140" height="10" x="90" y="210" fill="#a3efd0" /><rect width="140" height="10" x="90" y="220" fill="#a3efd0" /><rect width="140" height="10" x="90" y="230" fill="#87e4d9" /><rect width="140" height="10" x="90" y="240" fill="#87e4d9" /><rect width="20" height="10" x="90" y="250" fill="#87e4d9" /><rect width="110" height="10" x="120" y="250" fill="#87e4d9" /><rect width="20" height="10" x="90" y="260" fill="#87e4d9" /><rect width="110" height="10" x="120" y="260" fill="#87e4d9" /><rect width="20" height="10" x="90" y="270" fill="#7cc4f2" /><rect width="110" height="10" x="120" y="270" fill="#7cc4f2" /><rect width="20" height="10" x="90" y="280" fill="#7cc4f2" /><rect width="110" height="10" x="120" y="280" fill="#7cc4f2" /><rect width="20" height="10" x="90" y="290" fill="#7cc4f2" /><rect width="110" height="10" x="120" y="290" fill="#7cc4f2" /><rect width="20" height="10" x="90" y="300" fill="#7cc4f2" /><rect width="110" height="10" x="120" y="300" fill="#7cc4f2" /><rect width="20" height="10" x="90" y="310" fill="#71bde4" /><rect width="110" height="10" x="120" y="310" fill="#71bde4" /><rect width="40" height="10" x="70" y="50" fill="#000000" /><rect width="40" height="10" x="200" y="50" fill="#000000" /><rect width="60" height="10" x="60" y="60" fill="#000000" /><rect width="60" height="10" x="190" y="60" fill="#000000" /><rect width="60" height="10" x="60" y="70" fill="#000000" /><rect width="90" height="10" x="120" y="70" fill="#ffffff" /><rect width="40" height="10" x="210" y="70" fill="#000000" /><rect width="50" height="10" x="60" y="80" fill="#000000" /><rect width="110" height="10" x="110" y="80" fill="#ffffff" /><rect width="30" height="10" x="220" y="80" fill="#000000" /><rect width="40" height="10" x="60" y="90" fill="#000000" /><rect width="130" height="10" x="100" y="90" fill="#ffffff" /><rect width="20" height="10" x="230" y="90" fill="#000000" /><rect width="20" height="10" x="70" y="100" fill="#000000" /><rect width="140" height="10" x="90" y="100" fill="#ffffff" /><rect width="10" height="10" x="230" y="100" fill="#000000" /><rect width="160" height="10" x="80" y="110" fill="#ffffff" /><rect width="160" height="10" x="80" y="120" fill="#ffffff" /><rect width="160" height="10" x="80" y="130" fill="#ffffff" /><rect width="160" height="10" x="80" y="140" fill="#ffffff" /><rect width="160" height="10" x="80" y="150" fill="#ffffff" /><rect width="160" height="10" x="80" y="160" fill="#ffffff" /><rect width="100" height="10" x="80" y="170" fill="#ffffff" /><rect width="40" height="10" x="180" y="170" fill="#000000" /><rect width="20" height="10" x="220" y="170" fill="#ffffff" /><rect width="100" height="10" x="80" y="180" fill="#ffffff" /><rect width="40" height="10" x="180" y="180" fill="#000000" /><rect width="20" height="10" x="220" y="180" fill="#ffffff" /><rect width="70" height="10" x="80" y="190" fill="#ffffff" /><rect width="60" height="10" x="150" y="190" fill="#000000" /><rect width="30" height="10" x="210" y="190" fill="#ffffff" /><rect width="160" height="10" x="80" y="200" fill="#ffffff" /><rect width="60" height="10" x="100" y="110" fill="#000000" /><rect width="60" height="10" x="170" y="110" fill="#000000" /><rect width="30" height="10" x="100" y="120" fill="#000000" /><rect width="10" height="10" x="130" y="120" fill="#ff0e0e" /><rect width="20" height="10" x="140" y="120" fill="#000000" /><rect width="30" height="10" x="170" y="120" fill="#000000" /><rect width="10" height="10" x="200" y="120" fill="#ff0e0e" /><rect width="20" height="10" x="210" y="120" fill="#000000" /><rect width="160" height="10" x="70" y="130" fill="#000000" /><rect width="10" height="10" x="70" y="140" fill="#000000" /><rect width="10" height="10" x="100" y="140" fill="#000000" /><rect width="10" height="10" x="110" y="140" fill="#0adc4d" /><rect width="20" height="10" x="120" y="140" fill="#000000" /><rect width="10" height="10" x="140" y="140" fill="#1929f4" /><rect width="10" height="10" x="150" y="140" fill="#000000" /><rect width="10" height="10" x="170" y="140" fill="#000000" /><rect width="10" height="10" x="180" y="140" fill="#0adc4d" /><rect width="20" height="10" x="190" y="140" fill="#000000" /><rect width="10" height="10" x="210" y="140" fill="#1929f4" /><rect width="10" height="10" x="220" y="140" fill="#000000" /><rect width="10" height="10" x="70" y="150" fill="#000000" /><rect width="60" height="10" x="100" y="150" fill="#000000" /><rect width="60" height="10" x="170" y="150" fill="#000000" /><rect width="60" height="10" x="100" y="160" fill="#000000" /><rect width="60" height="10" x="170" y="160" fill="#000000" /></svg>