<svg width="320" height="320" viewBox="0 0 320 320" xmlns="http://www.w3.org/2000/svg" shape-rendering="crispEdges"><rect width="100%" height="100%" fill="#d5d7e1" /><rect width="140" height="10" x="90" y="210" fill="#b87b11" /><rect width="140" height="10" x="90" y="220" fill="#b87b11" /><rect width="140" height="10" x="90" y="230" fill="#b87b11" /><rect width="140" height="10" x="90" y="240" fill="#b87b11" /><rect width="20" height="10" x="90" y="250" fill="#b87b11" /><rect width="110" height="10" x="120" y="250" fill="#b87b11" /><rect width="20" height="10" x="90" y="260" fill="#b87b11" /><rect width="110" height="10" x="120" y="260" fill="#b87b11" /><rect width="20" height="10" x="90" y="270" fill="#b87b11" /><rect width="110" height="10" x="120" y="270" fill="#b87b11" /><rect width="20" height="10" x="90" y="280" fill="#b87b11" /><rect width="110" height="10" x="120" y="280" fill="#b87b11" /><rect width="20" height="10" x="90" y="290" fill="#b87b11" /><rect width="110" height="10" x="120" y="290" fill="#b87b11" /><rect width="20" height="10" x="90" y="300" fill="#b87b11" /><rect width="110" height="10" x="120" y="300" fill="#b87b11" /><rect width="20" height="10" x="90" y="310" fill="#b87b11" /><rect width="110" height="10" x="120" y="310" fill="#b87b11" /><rect width="140" height="10" x="90" y="210" fill="#667af9" /><rect width="10" height="10" x="90" y="220" fill="#667af9" /><rect width="10" height="10" x="100" y="220" fill="#648df9" /><rect width="10" height="10" x="110" y="220" fill="#667af9" /><rect width="10" height="10" x="120" y="220" fill="#648df9" /><rect width="10" height="10" x="130" y="220" fill="#667af9" /><rect width="10" height="10" x="140" y="220" fill="#648df9" /><rect width="10" height="10" x="150" y="220" fill="#667af9" /><rect width="10" height="10" x="160" y="220" fill="#648df9" /><rect width="10" height="10" x="170" y="220" fill="#667af9" /><rect width="10" height="10" x="180" y="220" fill="#648df9" /><rect width="10" height="10" x="190" y="220" fill="#667af9" /><rect width="10" height="10" x="200" y="220" fill="#648df9" /><rect width="10" height="10" x="210" y="220" fill="#667af9" /><rect width="10" height="10" x="220" y="220" fill="#648df9" /><rect width="140" height="10" x="90" y="230" fill="#648df9" /><rect width="10" height="10" x="90" y="240" fill="#648df9" /><rect width="10" height="10" x="100" y="240" fill="#63a0f9" /><rect width="10" height="10" x="110" y="240" fill="#648df9" /><rect width="10" height="10" x="120" y="240" fill="#63a0f9" /><rect width="10" height="10" x="130" y="240" fill="#648df9" /><rect width="10" height="10" x="140" y="240" fill="#63a0f9" /><rect width="10" height="10" x="150" y="240" fill="#648df9" /><rect width="10" height="10" x="160" y="240" fill="#63a0f9" /><rect width="10" height="10" x="170" y="240" fill="#648df9" /><rect width="10" height="10" x="180" y="240" fill="#63a0f9" /><rect width="10" height="10" x="190" y="240" fill="#648df9" /><rect width="10" height="10" x="200" y="240" fill="#63a0f9" /><rect width="10" height="10" x="210" y="240" fill="#648df9" /><rect width="10" height="10" x="220" y="240" fill="#63a0f9" /><rect width="20" height="10" x="90" y="250" fill="#63a0f9" /><rect width="110" height="10" x="120" y="250" fill="#63a0f9" /><rect width="20" height="10" x="90" y="260" fill="#63a0f9" /><rect width="110" height="10" x="120" y="260" fill="#63a0f9" /><rect width="20" height="10" x="90" y="270" fill="#63a0f9" /><rect width="110" height="10" x="120" y="270" fill="#63a0f9" /><rect width="10" height="10" x="90" y="280" fill="#63a0f9" /><rect width="10" height="10" x="100" y="280" fill="#7cc4f2" /><rect width="10" height="10" x="120" y="280" fill="#7cc4f2" /><rect width="10" height="10" x="130" y="280" fill="#63a0f9" /><rect width="10" height="10" x="140" y="280" fill="#7cc4f2" /><rect width="10" height="10" x="150" y="280" fill="#63a0f9" /><rect width="10" height="10" x="160" y="280" fill="#7cc4f2" /><rect width="10" height="10" x="170" y="280" fill="#63a0f9" /><rect width="10" height="10" x="180" y="280" fill="#7cc4f2" /><rect width="10" height="10" x="190" y="280" fill="#63a0f9" /><rect width="10" height="10" x="200" y="280" fill="#7cc4f2" /><rect width="10" height="10" x="210" y="280" fill="#63a0f9" /><rect width="10" height="10" x="220" y="280" fill="#7cc4f2" /><rect width="20" height="10" x="90" y="290" fill="#7cc4f2" /><rect width="110" height="10" x="120" y="290" fill="#7cc4f2" /><rect width="10" height="10" x="90" y="300" fill="#7cc4f2" /><rect width="10" height="10" x="100" y="300" fill="#97f2fb" /><rect width="10" height="10" x="120" y="300" fill="#97f2fb" /><rect width="10" height="10" x="130" y="300" fill="#7cc4f2" /><rect width="10" height="10" x="140" y="300" fill="#97f2fb" /><rect width="10" height="10" x="150" y="300" fill="#7cc4f2" /><rect width="10" height="10" x="160" y="300" fill="#97f2fb" /><rect width="10" height="10" x="170" y="300" fill="#7cc4f2" /><rect width="10" height="10" x="180" y="300" fill="#97f2fb" /><rect width="10" height="10" x="190" y="300" fill="#7cc4f2" /><rect width="10" height="10" x="200" y="300" fill="#97f2fb" /><rect width="10" height="10" x="210" y="300" fill="#7cc4f2" /><rect width="10" height="10" x="220" y="300" fill="#97f2fb" /><rect width="20" height="10" x="90" y="310" fill="#97f2fb" /><rect width="110" height="10" x="120" y="310" fill="#97f2fb" /><rect width="40" height="10" x="190" y="20" fill="#254efb" /><rect width="60" height="10" x="180" y="30" fill="#254efb" /><rect width="80" height="10" x="170" y="40" fill="#254efb" /><rect width="100" height="10" x="160" y="50" fill="#254efb" /><rect width="60" height="10" x="150" y="60" fill="#254efb" /><rect width="10" height="10" x="210" y="60" fill="#1f1d29" /><rect width="50" height="10" x="220" y="60" fill="#254efb" /><rect width="10" height="10" x="20" y="70" fill="#254efb" /><rect width="10" height="10" x="70" y="70" fill="#254efb" /><rect width="60" height="10" x="140" y="70" fill="#254efb" /><rect width="10" height="10" x="200" y="70" fill="#1f1d29" /><rect width="10" height="10" x="210" y="70" fill="#254efb" /><rect width="10" height="10" x="220" y="70" fill="#1f1d29" /><rect width="50" height="10" x="230" y="70" fill="#254efb" /><rect width="20" height="10" x="20" y="80" fill="#254efb" /><rect width="20" height="10" x="60" y="80" fill="#254efb" /><rect width="150" height="10" x="130" y="80" fill="#254efb" /><rect width="10" height="10" x="280" y="80" fill="#26b1f3" /><rect width="60" height="10" x="20" y="90" fill="#254efb" /><rect width="150" height="10" x="130" y="90" fill="#254efb" /><rect width="10" height="10" x="280" y="90" fill="#26b1f3" /><rect width="40" height="10" x="30" y="100" fill="#254efb" /><rect width="130" height="10" x="140" y="100" fill="#254efb" /><rect width="30" height="10" x="270" y="100" fill="#26b1f3" /><rect width="30" height="10" x="40" y="110" fill="#254efb" /><rect width="120" height="10" x="140" y="110" fill="#254efb" /><rect width="40" height="10" x="260" y="110" fill="#26b1f3" /><rect width="50" height="10" x="40" y="120" fill="#254efb" /><rect width="110" height="10" x="140" y="120" fill="#254efb" /><rect width="50" height="10" x="250" y="120" fill="#26b1f3" /><rect width="10" height="10" x="40" y="130" fill="#26b1f3" /><rect width="190" height="10" x="50" y="130" fill="#254efb" /><rect width="60" height="10" x="240" y="130" fill="#26b1f3" /><rect width="10" height="10" x="50" y="140" fill="#26b1f3" /><rect width="170" height="10" x="60" y="140" fill="#254efb" /><rect width="70" height="10" x="230" y="140" fill="#26b1f3" /><rect width="30" height="10" x="50" y="150" fill="#26b1f3" /><rect width="140" height="10" x="80" y="150" fill="#254efb" /><rect width="70" height="10" x="220" y="150" fill="#26b1f3" /><rect width="50" height="10" x="60" y="160" fill="#26b1f3" /><rect width="100" height="10" x="110" y="160" fill="#254efb" /><rect width="80" height="10" x="210" y="160" fill="#26b1f3" /><rect width="60" height="10" x="60" y="170" fill="#26b1f3" /><rect width="80" height="10" x="120" y="170" fill="#254efb" /><rect width="80" height="10" x="200" y="170" fill="#26b1f3" /><rect width="50" height="10" x="70" y="180" fill="#26b1f3" /><rect width="10" height="10" x="120" y="180" fill="#254efb" /><rect width="30" height="10" x="130" y="180" fill="#1f1d29" /><rect width="30" height="10" x="160" y="180" fill="#254efb" /><rect width="80" height="10" x="190" y="180" fill="#26b1f3" /><rect width="30" height="10" x="80" y="190" fill="#26b1f3" /><rect width="70" height="10" x="110" y="190" fill="#254efb" /><rect width="80" height="10" x="180" y="190" fill="#26b1f3" /><rect width="10" height="10" x="90" y="200" fill="#26b1f3" /><rect width="60" height="10" x="100" y="200" fill="#254efb" /><rect width="80" height="10" x="160" y="200" fill="#26b1f3" /><rect width="90" height="10" x="120" y="210" fill="#26b1f3" /><rect width="60" height="10" x="100" y="110" fill="#d19a54" /><rect width="60" height="10" x="170" y="110" fill="#d19a54" /><rect width="10" height="10" x="100" y="120" fill="#d19a54" /><rect width="20" height="10" x="110" y="120" fill="#ffffff" /><rect width="20" height="10" x="130" y="120" fill="#000000" /><rect width="10" height="10" x="150" y="120" fill="#d19a54" /><rect width="10" height="10" x="170" y="120" fill="#d19a54" /><rect width="20" height="10" x="180" y="120" fill="#ffffff" /><rect width="20" height="10" x="200" y="120" fill="#000000" /><rect width="10" height="10" x="220" y="120" fill="#d19a54" /><rect width="40" height="10" x="70" y="130" fill="#d19a54" /><rect width="20" height="10" x="110" y="130" fill="#ffffff" /><rect width="20" height="10" x="130" y="130" fill="#000000" /><rect width="30" height="10" x="150" y="130" fill="#d19a54" /><rect width="20" height="10" x="180" y="130" fill="#ffffff" /><rect width="20" height="10" x="200" y="130" fill="#000000" /><rect width="10" height="10" x="220" y="130" fill="#d19a54" /><rect width="10" height="10" x="70" y="140" fill="#d19a54" /><rect width="10" height="10" x="100" y="140" fill="#d19a54" /><rect width="20" height="10" x="110" y="140" fill="#ffffff" /><rect width="20" height="10" x="130" y="140" fill="#000000" /><rect width="10" height="10" x="150" y="140" fill="#d19a54" /><rect width="10" height="10" x="170" y="140" fill="#d19a54" /><rect width="20" height="10" x="180" y="140" fill="#ffffff" /><rect width="20" height="10" x="200" y="140" fill="#000000" /><rect width="10" height="10" x="220" y="140" fill="#d19a54" /><rect width="10" height="10" x="70" y="150" fill="#d19a54" /><rect width="10" height="10" x="100" y="150" fill="#d19a54" /><rect width="20" height="10" x="110" y="150" fill="#ffffff" /><rect width="20" height="10" x="130" y="150" fill="#000000" /><rect width="10" height="10" x="150" y="150" fill="#d19a54" /><rect width="10" height="10" x="170" y="150" fill="#d19a54" /><rect width="20" height="10" x="180" y="150" fill="#ffffff" /><rect width="20" height="10" x="200" y="150" fill="#000000" /><rect width="10" height="10" x="220" y="150" fill="#d19a54" /><rect width="60" height="10" x="100" y="160" fill="#d19a54" /><rect width="60" height="10" x="170" y="160" fill="#d19a54" /></svg>