<svg width="320" height="320" viewBox="0 0 320 320" xmlns="http://www.w3.org/2000/svg" shape-rendering="crispEdges"><rect width="100%" height="100%" fill="#e1d7d5" /><rect width="140" height="10" x="90" y="210" fill="#9f21a0" /><rect width="140" height="10" x="90" y="220" fill="#9f21a0" /><rect width="140" height="10" x="90" y="230" fill="#9f21a0" /><rect width="140" height="10" x="90" y="240" fill="#9f21a0" /><rect width="20" height="10" x="90" y="250" fill="#9f21a0" /><rect width="110" height="10" x="120" y="250" fill="#9f21a0" /><rect width="20" height="10" x="90" y="260" fill="#9f21a0" /><rect width="110" height="10" x="120" y="260" fill="#9f21a0" /><rect width="20" height="10" x="90" y="270" fill="#9f21a0" /><rect width="110" height="10" x="120" y="270" fill="#9f21a0" /><rect width="20" height="10" x="90" y="280" fill="#9f21a0" /><rect width="110" height="10" x="120" y="280" fill="#9f21a0" /><rect width="20" height="10" x="90" y="290" fill="#9f21a0" /><rect width="110" height="10" x="120" y="290" fill="#9f21a0" /><rect width="20" height="10" x="90" y="300" fill="#9f21a0" /><rect width="110" height="10" x="120" y="300" fill="#9f21a0" /><rect width="20" height="10" x="90" y="310" fill="#9f21a0" /><rect width="110" height="10" x="120" y="310" fill="#9f21a0" /><rect width="40" height="10" x="110" y="210" fill="#f98f30" /><rect width="50" height="10" x="180" y="210" fill="#f98f30" /><rect width="40" height="10" x="110" y="220" fill="#f98f30" /><rect width="50" height="10" x="180" y="220" fill="#f98f30" /><rect width="40" height="10" x="110" y="230" fill="#f98f30" /><rect width="50" height="10" x="180" y="230" fill="#f98f30" /><rect width="40" height="10" x="110" y="240" fill="#f98f30" /><rect width="50" height="10" x="180" y="240" fill="#f98f30" /><rect width="30" height="10" x="120" y="250" fill="#fdf8ff" /><rect width="50" height="10" x="180" y="250" fill="#fdf8ff" /><rect width="30" height="10" x="120" y="260" fill="#fdf8ff" /><rect width="50" height="10" x="180" y="260" fill="#fdf8ff" /><rect width="30" height="10" x="120" y="270" fill="#fdf8ff" /><rect width="50" height="10" x="180" y="270" fill="#fdf8ff" /><rect width="30" height="10" x="120" y="280" fill="#fdf8ff" /><rect width="50" height="10" x="180" y="280" fill="#fdf8ff" /><rect width="30" height="10" x="120" y="290" fill="#f98f30" /><rect width="50" height="10" x="180" y="290" fill="#f98f30" /><rect width="30" height="10" x="120" y="300" fill="#f98f30" /><rect width="50" height="10" x="180" y="300" fill="#f98f30" /><rect width="30" height="10" x="120" y="310" fill="#f98f30" /><rect width="50" height="10" x="180" y="310" fill="#f98f30" /><rect width="40" height="10" x="90" y="20" fill="#f98f30" /><rect width="40" height="10" x="190" y="20" fill="#f98f30" /><rect width="70" height="10" x="70" y="30" fill="#f98f30" /><rect width="70" height="10" x="180" y="30" fill="#f98f30" /><rect width="90" height="10" x="60" y="40" fill="#f98f30" /><rect width="90" height="10" x="170" y="40" fill="#f98f30" /><rect width="30" height="10" x="50" y="50" fill="#f98f30" /><rect width="20" height="10" x="80" y="50" fill="#fa5e20" /><rect width="20" height="10" x="220" y="50" fill="#fa5e20" /><rect width="30" height="10" x="240" y="50" fill="#f98f30" /><rect width="100" height="10" x="50" y="60" fill="#f98f30" /><rect width="100" height="10" x="170" y="60" fill="#f98f30" /><rect width="90" height="10" x="50" y="70" fill="#f98f30" /><rect width="90" height="10" x="180" y="70" fill="#f98f30" /><rect width="20" height="10" x="50" y="80" fill="#f98f30" /><rect width="50" height="10" x="80" y="80" fill="#f98f30" /><rect width="50" height="10" x="190" y="80" fill="#f98f30" /><rect width="20" height="10" x="250" y="80" fill="#f98f30" /><rect width="20" height="10" x="50" y="90" fill="#f98f30" /><rect width="10" height="10" x="140" y="90" fill="#000000" /><rect width="10" height="10" x="170" y="90" fill="#000000" /><rect width="20" height="10" x="250" y="90" fill="#f98f30" /><rect width="20" height="10" x="50" y="100" fill="#f98f30" /><rect width="160" height="10" x="80" y="100" fill="#f98f30" /><rect width="20" height="10" x="250" y="100" fill="#f98f30" /><rect width="20" height="10" x="50" y="110" fill="#f98f30" /><rect width="160" height="10" x="80" y="110" fill="#f98f30" /><rect width="20" height="10" x="250" y="110" fill="#f98f30" /><rect width="220" height="10" x="50" y="120" fill="#f98f30" /><rect width="220" height="10" x="50" y="130" fill="#f98f30" /><rect width="220" height="10" x="50" y="140" fill="#f98f30" /><rect width="160" height="10" x="80" y="150" fill="#f98f30" /><rect width="160" height="10" x="80" y="160" fill="#f98f30" /><rect width="160" height="10" x="80" y="170" fill="#f98f30" /><rect width="60" height="10" x="80" y="180" fill="#f98f30" /><rect width="40" height="10" x="140" y="180" fill="#fa5e20" /><rect width="60" height="10" x="180" y="180" fill="#f98f30" /><rect width="160" height="10" x="80" y="190" fill="#f98f30" /><rect width="160" height="10" x="80" y="200" fill="#f98f30" /><rect width="60" height="10" x="100" y="110" fill="#000000" /><rect width="60" height="10" x="170" y="110" fill="#000000" /><rect width="30" height="10" x="100" y="120" fill="#000000" /><rect width="10" height="10" x="130" y="120" fill="#ff0e0e" /><rect width="20" height="10" x="140" y="120" fill="#000000" /><rect width="30" height="10" x="170" y="120" fill="#000000" /><rect width="10" height="10" x="200" y="120" fill="#ff0e0e" /><rect width="20" height="10" x="210" y="120" fill="#000000" /><rect width="160" height="10" x="70" y="130" fill="#000000" /><rect width="10" height="10" x="70" y="140" fill="#000000" /><rect width="10" height="10" x="100" y="140" fill="#000000" /><rect width="10" height="10" x="110" y="140" fill="#0adc4d" /><rect width="20" height="10" x="120" y="140" fill="#000000" /><rect width="10" height="10" x="140" y="140" fill="#1929f4" /><rect width="10" height="10" x="150" y="140" fill="#000000" /><rect width="10" height="10" x="170" y="140" fill="#000000" /><rect width="10" height="10" x="180" y="140" fill="#0adc4d" /><rect width="20" height="10" x="190" y="140" fill="#000000" /><rect width="10" height="10" x="210" y="140" fill="#1929f4" /><rect width="10" height="10" x="220" y="140" fill="#000000" /><rect width="10" height="10" x="70" y="150" fill="#000000" /><rect width="60" height="10" x="100" y="150" fill="#000000" /><rect width="60" height="10" x="170" y="150" fill="#000000" /><rect width="60" height="10" x="100" y="160" fill="#000000" /><rect width="60" height="10" x="170" y="160" fill="#000000" /></svg>