<svg width="320" height="320" viewBox="0 0 320 320" xmlns="http://www.w3.org/2000/svg" shape-rendering="crispEdges"><rect width="100%" height="100%" fill="#d5d7e1" /><rect width="140" height="10" x="90" y="210" fill="#eed811" /><rect width="140" height="10" x="90" y="220" fill="#eed811" /><rect width="140" height="10" x="90" y="230" fill="#eed811" /><rect width="140" height="10" x="90" y="240" fill="#eed811" /><rect width="20" height="10" x="90" y="250" fill="#eed811" /><rect width="110" height="10" x="120" y="250" fill="#eed811" /><rect width="20" height="10" x="90" y="260" fill="#eed811" /><rect width="110" height="10" x="120" y="260" fill="#eed811" /><rect width="20" height="10" x="90" y="270" fill="#eed811" /><rect width="110" height="10" x="120" y="270" fill="#eed811" /><rect width="20" height="10" x="90" y="280" fill="#eed811" /><rect width="110" height="10" x="120" y="280" fill="#eed811" /><rect width="20" height="10" x="90" y="290" fill="#eed811" /><rect width="110" height="10" x="120" y="290" fill="#eed811" /><rect width="20" height="10" x="90" y="300" fill="#eed811" /><rect width="110" height="10" x="120" y="300" fill="#eed811" /><rect width="20" height="10" x="90" y="310" fill="#eed811" /><rect width="110" height="10" x="120" y="310" fill="#eed811" /><rect width="10" height="10" x="140" y="230" fill="#c4da53" /><rect width="10" height="10" x="160" y="230" fill="#c4da53" /><rect width="20" height="10" x="130" y="250" fill="#c4da53" /><rect width="20" height="10" x="160" y="250" fill="#c4da53" /><rect width="20" height="10" x="130" y="270" fill="#c4da53" /><rect width="20" height="10" x="160" y="270" fill="#c4da53" /><rect width="20" height="10" x="130" y="290" fill="#c4da53" /><rect width="10" height="10" x="160" y="290" fill="#c4da53" /><rect width="10" height="10" x="140" y="300" fill="#c4da53" /><rect width="50" height="10" x="100" y="60" fill="#4bea69" /><rect width="40" height="10" x="180" y="60" fill="#4bea69" /><rect width="70" height="10" x="90" y="70" fill="#4bea69" /><rect width="60" height="10" x="170" y="70" fill="#4bea69" /><rect width="40" height="10" x="80" y="80" fill="#4bea69" /><rect width="20" height="10" x="120" y="80" fill="#068940" /><rect width="100" height="10" x="140" y="80" fill="#4bea69" /><rect width="40" height="10" x="80" y="90" fill="#4bea69" /><rect width="20" height="10" x="120" y="90" fill="#068940" /><rect width="100" height="10" x="140" y="90" fill="#4bea69" /><rect width="130" height="10" x="80" y="100" fill="#4bea69" /><rect width="20" height="10" x="210" y="100" fill="#068940" /><rect width="10" height="10" x="230" y="100" fill="#4bea69" /><rect width="130" height="10" x="80" y="110" fill="#4bea69" /><rect width="20" height="10" x="210" y="110" fill="#068940" /><rect width="10" height="10" x="230" y="110" fill="#4bea69" /><rect width="160" height="10" x="80" y="120" fill="#4bea69" /><rect width="160" height="10" x="80" y="130" fill="#4bea69" /><rect width="20" height="10" x="80" y="140" fill="#068940" /><rect width="140" height="10" x="100" y="140" fill="#4bea69" /><rect width="10" height="10" x="70" y="150" fill="#4bea69" /><rect width="20" height="10" x="80" y="150" fill="#068940" /><rect width="150" height="10" x="100" y="150" fill="#4bea69" /><rect width="180" height="10" x="70" y="160" fill="#4bea69" /><rect width="180" height="10" x="70" y="170" fill="#4bea69" /><rect width="180" height="10" x="70" y="180" fill="#70e890" /><rect width="20" height="10" x="70" y="190" fill="#70e890" /><rect width="140" height="10" x="90" y="190" fill="#0b5027" /><rect width="20" height="10" x="230" y="190" fill="#70e890" /><rect width="160" height="10" x="80" y="200" fill="#70e890" /><rect width="60" height="10" x="100" y="110" fill="#000000" /><rect width="60" height="10" x="170" y="110" fill="#000000" /><rect width="30" height="10" x="100" y="120" fill="#000000" /><rect width="10" height="10" x="130" y="120" fill="#ff0e0e" /><rect width="20" height="10" x="140" y="120" fill="#000000" /><rect width="30" height="10" x="170" y="120" fill="#000000" /><rect width="10" height="10" x="200" y="120" fill="#ff0e0e" /><rect width="20" height="10" x="210" y="120" fill="#000000" /><rect width="160" height="10" x="70" y="130" fill="#000000" /><rect width="10" height="10" x="70" y="140" fill="#000000" /><rect width="10" height="10" x="100" y="140" fill="#000000" /><rect width="10" height="10" x="110" y="140" fill="#0adc4d" /><rect width="20" height="10" x="120" y="140" fill="#000000" /><rect width="10" height="10" x="140" y="140" fill="#1929f4" /><rect width="10" height="10" x="150" y="140" fill="#000000" /><rect width="10" height="10" x="170" y="140" fill="#000000" /><rect width="10" height="10" x="180" y="140" fill="#0adc4d" /><rect width="20" height="10" x="190" y="140" fill="#000000" /><rect width="10" height="10" x="210" y="140" fill="#1929f4" /><rect width="10" height="10" x="220" y="140" fill="#000000" /><rect width="10" height="10" x="70" y="150" fill="#000000" /><rect width="60" height="10" x="100" y="150" fill="#000000" /><rect width="60" height="10" x="170" y="150" fill="#000000" /><rect width="60" height="10" x="100" y="160" fill="#000000" /><rect width="60" height="10" x="170" y="160" fill="#000000" /></svg>