<svg width="320" height="320" viewBox="0 0 320 320" xmlns="http://www.w3.org/2000/svg" shape-rendering="crispEdges"><rect width="100%" height="100%" fill="#e1d7d5" /><rect width="140" height="10" x="90" y="210" fill="#1f1d29" /><rect width="140" height="10" x="90" y="220" fill="#1f1d29" /><rect width="140" height="10" x="90" y="230" fill="#1f1d29" /><rect width="140" height="10" x="90" y="240" fill="#1f1d29" /><rect width="20" height="10" x="90" y="250" fill="#1f1d29" /><rect width="110" height="10" x="120" y="250" fill="#1f1d29" /><rect width="20" height="10" x="90" y="260" fill="#1f1d29" /><rect width="110" height="10" x="120" y="260" fill="#1f1d29" /><rect width="20" height="10" x="90" y="270" fill="#1f1d29" /><rect width="110" height="10" x="120" y="270" fill="#1f1d29" /><rect width="20" height="10" x="90" y="280" fill="#1f1d29" /><rect width="110" height="10" x="120" y="280" fill="#1f1d29" /><rect width="20" height="10" x="90" y="290" fill="#1f1d29" /><rect width="110" height="10" x="120" y="290" fill="#1f1d29" /><rect width="20" height="10" x="90" y="300" fill="#1f1d29" /><rect width="110" height="10" x="120" y="300" fill="#1f1d29" /><rect width="20" height="10" x="90" y="310" fill="#1f1d29" /><rect width="110" height="10" x="120" y="310" fill="#1f1d29" /><rect width="10" height="10" x="130" y="240" fill="#cec189" /><rect width="20" height="10" x="140" y="240" fill="#909b0e" /><rect width="10" height="10" x="160" y="240" fill="#cec189" /><rect width="30" height="10" x="170" y="240" fill="#909b0e" /><rect width="20" height="10" x="130" y="250" fill="#909b0e" /><rect width="10" height="10" x="150" y="250" fill="#cec189" /><rect width="10" height="10" x="160" y="250" fill="#74580d" /><rect width="10" height="10" x="170" y="250" fill="#cec189" /><rect width="20" height="10" x="180" y="250" fill="#909b0e" /><rect width="20" height="10" x="130" y="260" fill="#909b0e" /><rect width="10" height="10" x="150" y="260" fill="#cec189" /><rect width="10" height="10" x="160" y="260" fill="#74580d" /><rect width="10" height="10" x="170" y="260" fill="#cec189" /><rect width="20" height="10" x="180" y="260" fill="#909b0e" /><rect width="30" height="10" x="130" y="270" fill="#909b0e" /><rect width="10" height="10" x="160" y="270" fill="#cec189" /><rect width="20" height="10" x="170" y="270" fill="#909b0e" /><rect width="10" height="10" x="190" y="270" fill="#cec189" /><rect width="10" height="10" x="140" y="280" fill="#63a0f9" /><rect width="10" height="10" x="160" y="280" fill="#63a0f9" /><rect width="10" height="10" x="180" y="280" fill="#63a0f9" /><rect width="10" height="10" x="140" y="290" fill="#63a0f9" /><rect width="10" height="10" x="180" y="300" fill="#63a0f9" /><rect width="20" height="10" x="150" y="20" fill="#d4a015" /><rect width="10" height="10" x="110" y="30" fill="#fff671" /><rect width="10" height="10" x="140" y="30" fill="#d4a015" /><rect width="20" height="10" x="150" y="30" fill="#fff671" /><rect width="10" height="10" x="170" y="30" fill="#d4a015" /><rect width="10" height="10" x="140" y="40" fill="#d4a015" /><rect width="20" height="10" x="150" y="40" fill="#fff671" /><rect width="10" height="10" x="170" y="40" fill="#d4a015" /><rect width="10" height="10" x="130" y="50" fill="#d4a015" /><rect width="40" height="10" x="140" y="50" fill="#fff671" /><rect width="10" height="10" x="180" y="50" fill="#d4a015" /><rect width="10" height="10" x="220" y="50" fill="#fff671" /><rect width="10" height="10" x="240" y="50" fill="#fff671" /><rect width="10" height="10" x="80" y="60" fill="#fff671" /><rect width="10" height="10" x="130" y="60" fill="#d4a015" /><rect width="40" height="10" x="140" y="60" fill="#fff671" /><rect width="10" height="10" x="180" y="60" fill="#d4a015" /><rect width="10" height="10" x="230" y="60" fill="#fff671" /><rect width="30" height="10" x="70" y="70" fill="#fff671" /><rect width="10" height="10" x="120" y="70" fill="#d4a015" /><rect width="60" height="10" x="130" y="70" fill="#fff671" /><rect width="10" height="10" x="190" y="70" fill="#d4a015" /><rect width="10" height="10" x="220" y="70" fill="#fff671" /><rect width="10" height="10" x="240" y="70" fill="#fff671" /><rect width="10" height="10" x="80" y="80" fill="#fff671" /><rect width="10" height="10" x="120" y="80" fill="#d4a015" /><rect width="60" height="10" x="130" y="80" fill="#fff671" /><rect width="10" height="10" x="190" y="80" fill="#d4a015" /><rect width="20" height="10" x="100" y="90" fill="#d4a015" /><rect width="80" height="10" x="120" y="90" fill="#fff671" /><rect width="20" height="10" x="200" y="90" fill="#d4a015" /><rect width="20" height="10" x="80" y="100" fill="#d4a015" /><rect width="120" height="10" x="100" y="100" fill="#fff671" /><rect width="20" height="10" x="220" y="100" fill="#d4a015" /><rect width="20" height="10" x="60" y="110" fill="#d4a015" /><rect width="160" height="10" x="80" y="110" fill="#fff671" /><rect width="20" height="10" x="240" y="110" fill="#d4a015" /><rect width="10" height="10" x="50" y="120" fill="#d4a015" /><rect width="200" height="10" x="60" y="120" fill="#fff671" /><rect width="10" height="10" x="260" y="120" fill="#d4a015" /><rect width="10" height="10" x="50" y="130" fill="#d4a015" /><rect width="200" height="10" x="60" y="130" fill="#fff671" /><rect width="10" height="10" x="260" y="130" fill="#d4a015" /><rect width="20" height="10" x="60" y="140" fill="#d4a015" /><rect width="160" height="10" x="80" y="140" fill="#fff671" /><rect width="20" height="10" x="240" y="140" fill="#d4a015" /><rect width="20" height="10" x="80" y="150" fill="#d4a015" /><rect width="120" height="10" x="100" y="150" fill="#fff671" /><rect width="20" height="10" x="220" y="150" fill="#d4a015" /><rect width="10" height="10" x="100" y="160" fill="#d4a015" /><rect width="100" height="10" x="110" y="160" fill="#fff671" /><rect width="10" height="10" x="210" y="160" fill="#d4a015" /><rect width="10" height="10" x="100" y="170" fill="#d4a015" /><rect width="100" height="10" x="110" y="170" fill="#fff671" /><rect width="10" height="10" x="210" y="170" fill="#d4a015" /><rect width="10" height="10" x="60" y="180" fill="#fff671" /><rect width="10" height="10" x="90" y="180" fill="#d4a015" /><rect width="70" height="10" x="100" y="180" fill="#fff671" /><rect width="30" height="10" x="170" y="180" fill="#d4a015" /><rect width="20" height="10" x="200" y="180" fill="#fff671" /><rect width="10" height="10" x="220" y="180" fill="#d4a015" /><rect width="10" height="10" x="90" y="190" fill="#d4a015" /><rect width="120" height="10" x="100" y="190" fill="#fff671" /><rect width="10" height="10" x="220" y="190" fill="#d4a015" /><rect width="10" height="10" x="80" y="200" fill="#d4a015" /><rect width="60" height="10" x="90" y="200" fill="#fff671" /><rect width="20" height="10" x="150" y="200" fill="#d4a015" /><rect width="60" height="10" x="170" y="200" fill="#fff671" /><rect width="10" height="10" x="230" y="200" fill="#d4a015" /><rect width="10" height="10" x="80" y="210" fill="#d4a015" /><rect width="40" height="10" x="90" y="210" fill="#fff671" /><rect width="20" height="10" x="130" y="210" fill="#d4a015" /><rect width="20" height="10" x="170" y="210" fill="#d4a015" /><rect width="40" height="10" x="190" y="210" fill="#fff671" /><rect width="10" height="10" x="230" y="210" fill="#d4a015" /><rect width="10" height="10" x="80" y="220" fill="#d4a015" /><rect width="20" height="10" x="90" y="220" fill="#fff671" /><rect width="20" height="10" x="110" y="220" fill="#d4a015" /><rect width="20" height="10" x="190" y="220" fill="#d4a015" /><rect width="20" height="10" x="210" y="220" fill="#fff671" /><rect width="10" height="10" x="230" y="220" fill="#d4a015" /><rect width="20" height="10" x="90" y="230" fill="#d4a015" /><rect width="20" height="10" x="210" y="230" fill="#d4a015" /><rect width="60" height="10" x="100" y="110" fill="#ff638d" /><rect width="60" height="10" x="170" y="110" fill="#ff638d" /><rect width="10" height="10" x="100" y="120" fill="#ff638d" /><rect width="20" height="10" x="110" y="120" fill="#ffffff" /><rect width="20" height="10" x="130" y="120" fill="#000000" /><rect width="10" height="10" x="150" y="120" fill="#ff638d" /><rect width="10" height="10" x="170" y="120" fill="#ff638d" /><rect width="20" height="10" x="180" y="120" fill="#ffffff" /><rect width="20" height="10" x="200" y="120" fill="#000000" /><rect width="10" height="10" x="220" y="120" fill="#ff638d" /><rect width="40" height="10" x="70" y="130" fill="#ff638d" /><rect width="20" height="10" x="110" y="130" fill="#ffffff" /><rect width="20" height="10" x="130" y="130" fill="#000000" /><rect width="30" height="10" x="150" y="130" fill="#ff638d" /><rect width="20" height="10" x="180" y="130" fill="#ffffff" /><rect width="20" height="10" x="200" y="130" fill="#000000" /><rect width="10" height="10" x="220" y="130" fill="#ff638d" /><rect width="40" height="10" x="70" y="140" fill="#ff638d" /><rect width="20" height="10" x="110" y="140" fill="#ffffff" /><rect width="20" height="10" x="130" y="140" fill="#000000" /><rect width="30" height="10" x="150" y="140" fill="#ff638d" /><rect width="20" height="10" x="180" y="140" fill="#ffffff" /><rect width="20" height="10" x="200" y="140" fill="#000000" /><rect width="10" height="10" x="220" y="140" fill="#ff638d" /><rect width="10" height="10" x="70" y="150" fill="#ff638d" /><rect width="10" height="10" x="100" y="150" fill="#ff638d" /><rect width="20" height="10" x="110" y="150" fill="#ffffff" /><rect width="20" height="10" x="130" y="150" fill="#000000" /><rect width="10" height="10" x="150" y="150" fill="#ff638d" /><rect width="10" height="10" x="170" y="150" fill="#ff638d" /><rect width="20" height="10" x="180" y="150" fill="#ffffff" /><rect width="20" height="10" x="200" y="150" fill="#000000" /><rect width="10" height="10" x="220" y="150" fill="#ff638d" /><rect width="60" height="10" x="100" y="160" fill="#ff638d" /><rect width="60" height="10" x="170" y="160" fill="#ff638d" /></svg>