<svg width="320" height="320" viewBox="0 0 320 320" xmlns="http://www.w3.org/2000/svg" shape-rendering="crispEdges"><rect width="100%" height="100%" fill="#d5d7e1" /><rect width="140" height="10" x="90" y="210" fill="#b87b11" /><rect width="140" height="10" x="90" y="220" fill="#b87b11" /><rect width="140" height="10" x="90" y="230" fill="#b87b11" /><rect width="140" height="10" x="90" y="240" fill="#b87b11" /><rect width="20" height="10" x="90" y="250" fill="#b87b11" /><rect width="110" height="10" x="120" y="250" fill="#b87b11" /><rect width="20" height="10" x="90" y="260" fill="#b87b11" /><rect width="110" height="10" x="120" y="260" fill="#b87b11" /><rect width="20" height="10" x="90" y="270" fill="#b87b11" /><rect width="110" height="10" x="120" y="270" fill="#b87b11" /><rect width="20" height="10" x="90" y="280" fill="#b87b11" /><rect width="110" height="10" x="120" y="280" fill="#b87b11" /><rect width="20" height="10" x="90" y="290" fill="#b87b11" /><rect width="110" height="10" x="120" y="290" fill="#b87b11" /><rect width="20" height="10" x="90" y="300" fill="#b87b11" /><rect width="110" height="10" x="120" y="300" fill="#b87b11" /><rect width="20" height="10" x="90" y="310" fill="#b87b11" /><rect width="110" height="10" x="120" y="310" fill="#b87b11" /><rect width="20" height="10" x="130" y="230" fill="#abaaa8" /><rect width="20" height="10" x="160" y="230" fill="#abaaa8" /><rect width="10" height="10" x="130" y="240" fill="#abaaa8" /><rect width="20" height="10" x="160" y="240" fill="#abaaa8" /><rect width="20" height="10" x="130" y="250" fill="#abaaa8" /><rect width="20" height="10" x="160" y="250" fill="#abaaa8" /><rect width="20" height="10" x="130" y="270" fill="#abaaa8" /><rect width="10" height="10" x="160" y="270" fill="#abaaa8" /><rect width="10" height="10" x="180" y="270" fill="#abaaa8" /><rect width="20" height="10" x="130" y="280" fill="#abaaa8" /><rect width="20" height="10" x="160" y="280" fill="#abaaa8" /><rect width="10" height="10" x="130" y="290" fill="#abaaa8" /><rect width="10" height="10" x="160" y="290" fill="#abaaa8" /><rect width="100" height="10" x="120" y="20" fill="#f39d44" /><rect width="10" height="10" x="110" y="30" fill="#f39d44" /><rect width="100" height="10" x="120" y="30" fill="#eeb78c" /><rect width="10" height="10" x="220" y="30" fill="#f39d44" /><rect width="10" height="10" x="100" y="40" fill="#f39d44" /><rect width="10" height="10" x="110" y="40" fill="#eeb78c" /><rect width="40" height="10" x="120" y="40" fill="#f9f5e9" /><rect width="20" height="10" x="160" y="40" fill="#eeb78c" /><rect width="40" height="10" x="180" y="40" fill="#f9f5e9" /><rect width="10" height="10" x="220" y="40" fill="#eeb78c" /><rect width="10" height="10" x="230" y="40" fill="#f39d44" /><rect width="10" height="10" x="100" y="50" fill="#f39d44" /><rect width="10" height="10" x="110" y="50" fill="#eeb78c" /><rect width="100" height="10" x="120" y="50" fill="#f9f5e9" /><rect width="10" height="10" x="220" y="50" fill="#eeb78c" /><rect width="10" height="10" x="230" y="50" fill="#f39d44" /><rect width="10" height="10" x="100" y="60" fill="#f39d44" /><rect width="10" height="10" x="110" y="60" fill="#eeb78c" /><rect width="10" height="10" x="120" y="60" fill="#f9f5e9" /><rect width="20" height="10" x="130" y="60" fill="#5d3500" /><rect width="10" height="10" x="150" y="60" fill="#eeb78c" /><rect width="20" height="10" x="160" y="60" fill="#f9f5e9" /><rect width="10" height="10" x="180" y="60" fill="#eeb78c" /><rect width="20" height="10" x="190" y="60" fill="#5d3500" /><rect width="10" height="10" x="210" y="60" fill="#f9f5e9" /><rect width="10" height="10" x="220" y="60" fill="#eeb78c" /><rect width="10" height="10" x="230" y="60" fill="#f39d44" /><rect width="10" height="10" x="100" y="70" fill="#f39d44" /><rect width="10" height="10" x="110" y="70" fill="#eeb78c" /><rect width="30" height="10" x="120" y="70" fill="#f9f5e9" /><rect width="10" height="10" x="150" y="70" fill="#eeb78c" /><rect width="20" height="10" x="160" y="70" fill="#f9f5e9" /><rect width="10" height="10" x="180" y="70" fill="#eeb78c" /><rect width="30" height="10" x="190" y="70" fill="#f9f5e9" /><rect width="10" height="10" x="220" y="70" fill="#eeb78c" /><rect width="10" height="10" x="230" y="70" fill="#f39d44" /><rect width="10" height="10" x="100" y="80" fill="#f39d44" /><rect width="10" height="10" x="110" y="80" fill="#eeb78c" /><rect width="40" height="10" x="120" y="80" fill="#f9f5e9" /><rect width="20" height="10" x="160" y="80" fill="#eeb78c" /><rect width="40" height="10" x="180" y="80" fill="#f9f5e9" /><rect width="10" height="10" x="220" y="80" fill="#eeb78c" /><rect width="10" height="10" x="230" y="80" fill="#f39d44" /><rect width="20" height="10" x="100" y="90" fill="#f39d44" /><rect width="10" height="10" x="120" y="90" fill="#eeb78c" /><rect width="80" height="10" x="130" y="90" fill="#f9f5e9" /><rect width="20" height="10" x="210" y="90" fill="#eeb78c" /><rect width="10" height="10" x="230" y="90" fill="#f39d44" /><rect width="40" height="10" x="90" y="100" fill="#db8323" /><rect width="10" height="10" x="130" y="100" fill="#eeb78c" /><rect width="80" height="10" x="140" y="100" fill="#f9f5e9" /><rect width="10" height="10" x="220" y="100" fill="#eeb78c" /><rect width="10" height="10" x="230" y="100" fill="#f39d44" /><rect width="60" height="10" x="80" y="110" fill="#db8323" /><rect width="80" height="10" x="140" y="110" fill="#f9f5e9" /><rect width="10" height="10" x="220" y="110" fill="#eeb78c" /><rect width="10" height="10" x="230" y="110" fill="#f39d44" /><rect width="60" height="10" x="80" y="120" fill="#db8323" /><rect width="10" height="10" x="140" y="120" fill="#f39d44" /><rect width="70" height="10" x="150" y="120" fill="#f9f5e9" /><rect width="10" height="10" x="220" y="120" fill="#eeb78c" /><rect width="10" height="10" x="230" y="120" fill="#f39d44" /><rect width="70" height="10" x="70" y="130" fill="#db8323" /><rect width="10" height="10" x="140" y="130" fill="#f39d44" /><rect width="70" height="10" x="150" y="130" fill="#f9f5e9" /><rect width="10" height="10" x="220" y="130" fill="#eeb78c" /><rect width="10" height="10" x="230" y="130" fill="#f39d44" /><rect width="70" height="10" x="70" y="140" fill="#db8323" /><rect width="10" height="10" x="140" y="140" fill="#f39d44" /><rect width="70" height="10" x="150" y="140" fill="#f9f5e9" /><rect width="10" height="10" x="220" y="140" fill="#eeb78c" /><rect width="10" height="10" x="230" y="140" fill="#f39d44" /><rect width="70" height="10" x="70" y="150" fill="#db8323" /><rect width="10" height="10" x="140" y="150" fill="#f39d44" /><rect width="70" height="10" x="150" y="150" fill="#f9f5e9" /><rect width="10" height="10" x="220" y="150" fill="#eeb78c" /><rect width="10" height="10" x="230" y="150" fill="#f39d44" /><rect width="60" height="10" x="70" y="160" fill="#db8323" /><rect width="20" height="10" x="130" y="160" fill="#f39d44" /><rect width="70" height="10" x="150" y="160" fill="#f9f5e9" /><rect width="10" height="10" x="220" y="160" fill="#f39d44" /><rect width="50" height="10" x="70" y="170" fill="#db8323" /><rect width="30" height="10" x="120" y="170" fill="#f39d44" /><rect width="60" height="10" x="150" y="170" fill="#f9f5e9" /><rect width="10" height="10" x="210" y="170" fill="#f39d44" /><rect width="30" height="10" x="70" y="180" fill="#db8323" /><rect width="40" height="10" x="100" y="180" fill="#f39d44" /><rect width="60" height="10" x="140" y="180" fill="#f9f5e9" /><rect width="10" height="10" x="200" y="180" fill="#f39d44" /><rect width="10" height="10" x="60" y="190" fill="#f39d44" /><rect width="10" height="10" x="70" y="190" fill="#db8323" /><rect width="70" height="10" x="80" y="190" fill="#f39d44" /><rect width="60" height="10" x="150" y="190" fill="#f9f5e9" /><rect width="110" height="10" x="50" y="200" fill="#f39d44" /><rect width="70" height="10" x="160" y="200" fill="#f9f5e9" /><rect width="60" height="10" x="100" y="110" fill="#ff638d" /><rect width="60" height="10" x="170" y="110" fill="#ff638d" /><rect width="10" height="10" x="100" y="120" fill="#ff638d" /><rect width="20" height="10" x="110" y="120" fill="#ffffff" /><rect width="20" height="10" x="130" y="120" fill="#000000" /><rect width="10" height="10" x="150" y="120" fill="#ff638d" /><rect width="10" height="10" x="170" y="120" fill="#ff638d" /><rect width="20" height="10" x="180" y="120" fill="#ffffff" /><rect width="20" height="10" x="200" y="120" fill="#000000" /><rect width="10" height="10" x="220" y="120" fill="#ff638d" /><rect width="40" height="10" x="70" y="130" fill="#ff638d" /><rect width="20" height="10" x="110" y="130" fill="#ffffff" /><rect width="20" height="10" x="130" y="130" fill="#000000" /><rect width="30" height="10" x="150" y="130" fill="#ff638d" /><rect width="20" height="10" x="180" y="130" fill="#ffffff" /><rect width="20" height="10" x="200" y="130" fill="#000000" /><rect width="10" height="10" x="220" y="130" fill="#ff638d" /><rect width="40" height="10" x="70" y="140" fill="#ff638d" /><rect width="20" height="10" x="110" y="140" fill="#ffffff" /><rect width="20" height="10" x="130" y="140" fill="#000000" /><rect width="30" height="10" x="150" y="140" fill="#ff638d" /><rect width="20" height="10" x="180" y="140" fill="#ffffff" /><rect width="20" height="10" x="200" y="140" fill="#000000" /><rect width="10" height="10" x="220" y="140" fill="#ff638d" /><rect width="10" height="10" x="70" y="150" fill="#ff638d" /><rect width="10" height="10" x="100" y="150" fill="#ff638d" /><rect width="20" height="10" x="110" y="150" fill="#ffffff" /><rect width="20" height="10" x="130" y="150" fill="#000000" /><rect width="10" height="10" x="150" y="150" fill="#ff638d" /><rect width="10" height="10" x="170" y="150" fill="#ff638d" /><rect width="20" height="10" x="180" y="150" fill="#ffffff" /><rect width="20" height="10" x="200" y="150" fill="#000000" /><rect width="10" height="10" x="220" y="150" fill="#ff638d" /><rect width="60" height="10" x="100" y="160" fill="#ff638d" /><rect width="60" height="10" x="170" y="160" fill="#ff638d" /></svg>