<svg width="320" height="320" viewBox="0 0 320 320" xmlns="http://www.w3.org/2000/svg" shape-rendering="crispEdges"><rect width="100%" height="100%" fill="#e1d7d5" /><rect width="140" height="10" x="90" y="210" fill="#807f7e" /><rect width="140" height="10" x="90" y="220" fill="#807f7e" /><rect width="140" height="10" x="90" y="230" fill="#807f7e" /><rect width="140" height="10" x="90" y="240" fill="#807f7e" /><rect width="20" height="10" x="90" y="250" fill="#807f7e" /><rect width="110" height="10" x="120" y="250" fill="#807f7e" /><rect width="20" height="10" x="90" y="260" fill="#807f7e" /><rect width="110" height="10" x="120" y="260" fill="#807f7e" /><rect width="20" height="10" x="90" y="270" fill="#807f7e" /><rect width="110" height="10" x="120" y="270" fill="#807f7e" /><rect width="20" height="10" x="90" y="280" fill="#807f7e" /><rect width="110" height="10" x="120" y="280" fill="#807f7e" /><rect width="20" height="10" x="90" y="290" fill="#807f7e" /><rect width="110" height="10" x="120" y="290" fill="#807f7e" /><rect width="20" height="10" x="90" y="300" fill="#807f7e" /><rect width="110" height="10" x="120" y="300" fill="#807f7e" /><rect width="20" height="10" x="90" y="310" fill="#807f7e" /><rect width="110" height="10" x="120" y="310" fill="#807f7e" /><rect width="10" height="10" x="140" y="230" fill="#c4da53" /><rect width="10" height="10" x="160" y="230" fill="#c4da53" /><rect width="20" height="10" x="130" y="250" fill="#c4da53" /><rect width="20" height="10" x="160" y="250" fill="#c4da53" /><rect width="20" height="10" x="130" y="270" fill="#c4da53" /><rect width="20" height="10" x="160" y="270" fill="#c4da53" /><rect width="20" height="10" x="130" y="290" fill="#c4da53" /><rect width="10" height="10" x="160" y="290" fill="#c4da53" /><rect width="10" height="10" x="140" y="300" fill="#c4da53" /><rect width="10" height="10" x="150" y="10" fill="#db8323" /><rect width="20" height="10" x="160" y="10" fill="#ffb913" /><rect width="10" height="10" x="150" y="20" fill="#ffb913" /><rect width="10" height="10" x="160" y="20" fill="#db8323" /><rect width="20" height="10" x="170" y="20" fill="#ffb913" /><rect width="10" height="10" x="150" y="30" fill="#ffb913" /><rect width="10" height="10" x="160" y="30" fill="#db8323" /><rect width="20" height="10" x="170" y="30" fill="#ffb913" /><rect width="10" height="10" x="150" y="40" fill="#db8323" /><rect width="30" height="10" x="160" y="40" fill="#ffb913" /><rect width="50" height="10" x="140" y="50" fill="#ffb913" /><rect width="60" height="10" x="130" y="60" fill="#ffb913" /><rect width="60" height="10" x="120" y="70" fill="#ffb913" /><rect width="60" height="10" x="110" y="80" fill="#ffb913" /><rect width="10" height="10" x="170" y="80" fill="#db8323" /><rect width="70" height="10" x="180" y="80" fill="#ffb913" /><rect width="80" height="10" x="80" y="90" fill="#ffb913" /><rect width="10" height="10" x="160" y="90" fill="#db8323" /><rect width="70" height="10" x="170" y="90" fill="#ffb913" /><rect width="10" height="10" x="240" y="90" fill="#db8323" /><rect width="10" height="10" x="250" y="90" fill="#ffb913" /><rect width="110" height="10" x="50" y="100" fill="#ffb913" /><rect width="10" height="10" x="160" y="100" fill="#db8323" /><rect width="70" height="10" x="170" y="100" fill="#ffb913" /><rect width="10" height="10" x="240" y="100" fill="#db8323" /><rect width="10" height="10" x="250" y="100" fill="#ffb913" /><rect width="130" height="10" x="50" y="110" fill="#ffb913" /><rect width="10" height="10" x="180" y="110" fill="#db8323" /><rect width="60" height="10" x="190" y="110" fill="#ffb913" /><rect width="10" height="10" x="250" y="110" fill="#db8323" /><rect width="130" height="10" x="50" y="120" fill="#ffb913" /><rect width="70" height="10" x="180" y="120" fill="#db8323" /><rect width="100" height="10" x="50" y="130" fill="#ffb913" /><rect width="10" height="10" x="150" y="130" fill="#db8323" /><rect width="100" height="10" x="160" y="130" fill="#ffb913" /><rect width="100" height="10" x="50" y="140" fill="#ffb913" /><rect width="10" height="10" x="150" y="140" fill="#db8323" /><rect width="80" height="10" x="160" y="140" fill="#ffb913" /><rect width="10" height="10" x="240" y="140" fill="#db8323" /><rect width="10" height="10" x="250" y="140" fill="#ffb913" /><rect width="100" height="10" x="50" y="150" fill="#ffb913" /><rect width="10" height="10" x="150" y="150" fill="#db8323" /><rect width="90" height="10" x="160" y="150" fill="#ffb913" /><rect width="10" height="10" x="250" y="150" fill="#db8323" /><rect width="120" height="10" x="50" y="160" fill="#ffb913" /><rect width="80" height="10" x="170" y="160" fill="#db8323" /><rect width="10" height="10" x="50" y="170" fill="#ffb913" /><rect width="20" height="10" x="60" y="170" fill="#db8323" /><rect width="50" height="10" x="80" y="170" fill="#ffb913" /><rect width="10" height="10" x="130" y="170" fill="#db8323" /><rect width="20" height="10" x="140" y="170" fill="#ffb913" /><rect width="10" height="10" x="160" y="170" fill="#db8323" /><rect width="80" height="10" x="170" y="170" fill="#ffb913" /><rect width="80" height="10" x="50" y="180" fill="#ffb913" /><rect width="40" height="10" x="130" y="180" fill="#db8323" /><rect width="60" height="10" x="170" y="180" fill="#ffb913" /><rect width="10" height="10" x="230" y="180" fill="#db8323" /><rect width="10" height="10" x="240" y="180" fill="#ffb913" /><rect width="40" height="10" x="80" y="190" fill="#ffb913" /><rect width="10" height="10" x="120" y="190" fill="#db8323" /><rect width="30" height="10" x="130" y="190" fill="#ffb913" /><rect width="10" height="10" x="160" y="190" fill="#db8323" /><rect width="70" height="10" x="170" y="190" fill="#ffb913" /><rect width="10" height="10" x="240" y="190" fill="#db8323" /><rect width="80" height="10" x="90" y="200" fill="#ffb913" /><rect width="70" height="10" x="170" y="200" fill="#db8323" /><rect width="60" height="10" x="100" y="110" fill="#8dd122" /><rect width="60" height="10" x="170" y="110" fill="#8dd122" /><rect width="10" height="10" x="100" y="120" fill="#8dd122" /><rect width="20" height="10" x="110" y="120" fill="#ffffff" /><rect width="20" height="10" x="130" y="120" fill="#000000" /><rect width="10" height="10" x="150" y="120" fill="#8dd122" /><rect width="10" height="10" x="170" y="120" fill="#8dd122" /><rect width="20" height="10" x="180" y="120" fill="#ffffff" /><rect width="20" height="10" x="200" y="120" fill="#000000" /><rect width="10" height="10" x="220" y="120" fill="#8dd122" /><rect width="40" height="10" x="70" y="130" fill="#8dd122" /><rect width="20" height="10" x="110" y="130" fill="#ffffff" /><rect width="20" height="10" x="130" y="130" fill="#000000" /><rect width="30" height="10" x="150" y="130" fill="#8dd122" /><rect width="20" height="10" x="180" y="130" fill="#ffffff" /><rect width="20" height="10" x="200" y="130" fill="#000000" /><rect width="10" height="10" x="220" y="130" fill="#8dd122" /><rect width="10" height="10" x="70" y="140" fill="#8dd122" /><rect width="10" height="10" x="100" y="140" fill="#8dd122" /><rect width="20" height="10" x="110" y="140" fill="#ffffff" /><rect width="20" height="10" x="130" y="140" fill="#000000" /><rect width="10" height="10" x="150" y="140" fill="#8dd122" /><rect width="10" height="10" x="170" y="140" fill="#8dd122" /><rect width="20" height="10" x="180" y="140" fill="#ffffff" /><rect width="20" height="10" x="200" y="140" fill="#000000" /><rect width="10" height="10" x="220" y="140" fill="#8dd122" /><rect width="10" height="10" x="70" y="150" fill="#8dd122" /><rect width="10" height="10" x="100" y="150" fill="#8dd122" /><rect width="20" height="10" x="110" y="150" fill="#ffffff" /><rect width="20" height="10" x="130" y="150" fill="#000000" /><rect width="10" height="10" x="150" y="150" fill="#8dd122" /><rect width="10" height="10" x="170" y="150" fill="#8dd122" /><rect width="20" height="10" x="180" y="150" fill="#ffffff" /><rect width="20" height="10" x="200" y="150" fill="#000000" /><rect width="10" height="10" x="220" y="150" fill="#8dd122" /><rect width="60" height="10" x="100" y="160" fill="#8dd122" /><rect width="60" height="10" x="170" y="160" fill="#8dd122" /></svg>