<svg width="320" height="320" viewBox="0 0 320 320" xmlns="http://www.w3.org/2000/svg" shape-rendering="crispEdges"><rect width="100%" height="100%" fill="#e1d7d5" /><rect width="140" height="10" x="90" y="210" fill="#b9185c" /><rect width="140" height="10" x="90" y="220" fill="#b9185c" /><rect width="140" height="10" x="90" y="230" fill="#b9185c" /><rect width="140" height="10" x="90" y="240" fill="#b9185c" /><rect width="20" height="10" x="90" y="250" fill="#b9185c" /><rect width="110" height="10" x="120" y="250" fill="#b9185c" /><rect width="20" height="10" x="90" y="260" fill="#b9185c" /><rect width="110" height="10" x="120" y="260" fill="#b9185c" /><rect width="20" height="10" x="90" y="270" fill="#b9185c" /><rect width="110" height="10" x="120" y="270" fill="#b9185c" /><rect width="20" height="10" x="90" y="280" fill="#b9185c" /><rect width="110" height="10" x="120" y="280" fill="#b9185c" /><rect width="20" height="10" x="90" y="290" fill="#b9185c" /><rect width="110" height="10" x="120" y="290" fill="#b9185c" /><rect width="20" height="10" x="90" y="300" fill="#b9185c" /><rect width="110" height="10" x="120" y="300" fill="#b9185c" /><rect width="20" height="10" x="90" y="310" fill="#b9185c" /><rect width="110" height="10" x="120" y="310" fill="#b9185c" /><rect width="140" height="10" x="90" y="210" fill="#caeff9" /><rect width="140" height="10" x="90" y="220" fill="#caeff9" /><rect width="140" height="10" x="90" y="230" fill="#caeff9" /><rect width="140" height="10" x="90" y="240" fill="#caeff9" /><rect width="20" height="10" x="90" y="250" fill="#caeff9" /><rect width="110" height="10" x="120" y="250" fill="#caeff9" /><rect width="20" height="10" x="90" y="260" fill="#caeff9" /><rect width="110" height="10" x="120" y="260" fill="#caeff9" /><rect width="20" height="10" x="90" y="270" fill="#caeff9" /><rect width="110" height="10" x="120" y="270" fill="#caeff9" /><rect width="20" height="10" x="90" y="280" fill="#caeff9" /><rect width="110" height="10" x="120" y="280" fill="#caeff9" /><rect width="20" height="10" x="90" y="290" fill="#caeff9" /><rect width="110" height="10" x="120" y="290" fill="#caeff9" /><rect width="20" height="10" x="90" y="300" fill="#caeff9" /><rect width="110" height="10" x="120" y="300" fill="#caeff9" /><rect width="20" height="10" x="90" y="310" fill="#caeff9" /><rect width="110" height="10" x="120" y="310" fill="#caeff9" /><rect width="10" height="10" x="130" y="20" fill="#f3322c" /><rect width="110" height="10" x="100" y="30" fill="#f3322c" /><rect width="110" height="10" x="90" y="40" fill="#f3322c" /><rect width="120" height="10" x="90" y="50" fill="#f3322c" /><rect width="140" height="10" x="70" y="60" fill="#f3322c" /><rect width="60" height="10" x="60" y="70" fill="#f3322c" /><rect width="70" height="10" x="120" y="70" fill="#1f1d29" /><rect width="40" height="10" x="190" y="70" fill="#f3322c" /><rect width="40" height="10" x="80" y="80" fill="#f3322c" /><rect width="70" height="10" x="120" y="80" fill="#1f1d29" /><rect width="40" height="10" x="190" y="80" fill="#f3322c" /><rect width="20" height="10" x="80" y="90" fill="#f3322c" /><rect width="120" height="10" x="100" y="90" fill="#1f1d29" /><rect width="10" height="10" x="220" y="90" fill="#f3322c" /><rect width="20" height="10" x="80" y="100" fill="#f3322c" /><rect width="120" height="10" x="100" y="100" fill="#1f1d29" /><rect width="10" height="10" x="220" y="100" fill="#f3322c" /><rect width="20" height="10" x="80" y="110" fill="#f3322c" /><rect width="120" height="10" x="100" y="110" fill="#1f1d29" /><rect width="10" height="10" x="220" y="110" fill="#f3322c" /><rect width="20" height="10" x="80" y="120" fill="#f3322c" /><rect width="120" height="10" x="100" y="120" fill="#1f1d29" /><rect width="10" height="10" x="220" y="120" fill="#f3322c" /><rect width="20" height="10" x="80" y="130" fill="#f3322c" /><rect width="120" height="10" x="100" y="130" fill="#1f1d29" /><rect width="10" height="10" x="220" y="130" fill="#f3322c" /><rect width="160" height="10" x="80" y="140" fill="#1f1d29" /><rect width="40" height="10" x="80" y="150" fill="#1f1d29" /><rect width="100" height="10" x="120" y="150" fill="#5a423f" /><rect width="20" height="10" x="220" y="150" fill="#1f1d29" /><rect width="30" height="10" x="80" y="160" fill="#1f1d29" /><rect width="120" height="10" x="110" y="160" fill="#5a423f" /><rect width="10" height="10" x="230" y="160" fill="#1f1d29" /><rect width="30" height="10" x="80" y="170" fill="#1f1d29" /><rect width="10" height="10" x="110" y="170" fill="#5a423f" /><rect width="10" height="10" x="120" y="170" fill="#f3322c" /><rect width="20" height="10" x="130" y="170" fill="#5a423f" /><rect width="10" height="10" x="150" y="170" fill="#1f1d29" /><rect width="10" height="10" x="160" y="170" fill="#5a423f" /><rect width="10" height="10" x="170" y="170" fill="#1f1d29" /><rect width="30" height="10" x="180" y="170" fill="#5a423f" /><rect width="10" height="10" x="210" y="170" fill="#f3322c" /><rect width="10" height="10" x="220" y="170" fill="#5a423f" /><rect width="10" height="10" x="230" y="170" fill="#1f1d29" /><rect width="30" height="10" x="80" y="180" fill="#1f1d29" /><rect width="10" height="10" x="110" y="180" fill="#f3322c" /><rect width="100" height="10" x="120" y="180" fill="#5a423f" /><rect width="10" height="10" x="220" y="180" fill="#f3322c" /><rect width="10" height="10" x="230" y="180" fill="#1f1d29" /><rect width="30" height="10" x="80" y="190" fill="#1f1d29" /><rect width="10" height="10" x="110" y="190" fill="#f3322c" /><rect width="100" height="10" x="120" y="190" fill="#000000" /><rect width="10" height="10" x="220" y="190" fill="#f3322c" /><rect width="10" height="10" x="230" y="190" fill="#1f1d29" /><rect width="30" height="10" x="80" y="200" fill="#1f1d29" /><rect width="120" height="10" x="110" y="200" fill="#f3322c" /><rect width="10" height="10" x="230" y="200" fill="#1f1d29" /><rect width="60" height="10" x="100" y="110" fill="#068940" /><rect width="60" height="10" x="170" y="110" fill="#257ced" /><rect width="10" height="10" x="100" y="120" fill="#068940" /><rect width="20" height="10" x="110" y="120" fill="#ffffff" /><rect width="20" height="10" x="130" y="120" fill="#000000" /><rect width="10" height="10" x="150" y="120" fill="#068940" /><rect width="10" height="10" x="170" y="120" fill="#257ced" /><rect width="20" height="10" x="180" y="120" fill="#ffffff" /><rect width="20" height="10" x="200" y="120" fill="#000000" /><rect width="10" height="10" x="220" y="120" fill="#257ced" /><rect width="30" height="10" x="70" y="130" fill="#254efb" /><rect width="10" height="10" x="100" y="130" fill="#068940" /><rect width="20" height="10" x="110" y="130" fill="#ffffff" /><rect width="20" height="10" x="130" y="130" fill="#000000" /><rect width="10" height="10" x="150" y="130" fill="#068940" /><rect width="10" height="10" x="160" y="130" fill="#254efb" /><rect width="10" height="10" x="170" y="130" fill="#257ced" /><rect width="20" height="10" x="180" y="130" fill="#ffffff" /><rect width="20" height="10" x="200" y="130" fill="#000000" /><rect width="10" height="10" x="220" y="130" fill="#257ced" /><rect width="10" height="10" x="70" y="140" fill="#257ced" /><rect width="10" height="10" x="100" y="140" fill="#068940" /><rect width="20" height="10" x="110" y="140" fill="#ffffff" /><rect width="20" height="10" x="130" y="140" fill="#000000" /><rect width="10" height="10" x="150" y="140" fill="#068940" /><rect width="10" height="10" x="170" y="140" fill="#257ced" /><rect width="20" height="10" x="180" y="140" fill="#ffffff" /><rect width="20" height="10" x="200" y="140" fill="#000000" /><rect width="10" height="10" x="220" y="140" fill="#257ced" /><rect width="10" height="10" x="70" y="150" fill="#257ced" /><rect width="10" height="10" x="100" y="150" fill="#068940" /><rect width="20" height="10" x="110" y="150" fill="#ffffff" /><rect width="20" height="10" x="130" y="150" fill="#000000" /><rect width="10" height="10" x="150" y="150" fill="#068940" /><rect width="10" height="10" x="170" y="150" fill="#257ced" /><rect width="20" height="10" x="180" y="150" fill="#ffffff" /><rect width="20" height="10" x="200" y="150" fill="#000000" /><rect width="10" height="10" x="220" y="150" fill="#257ced" /><rect width="60" height="10" x="100" y="160" fill="#068940" /><rect width="60" height="10" x="170" y="160" fill="#257ced" /></svg>